PathFileType	4	(X/Y/Z)	34_2_9_p0_0-1197.trc
DataRate	CameraRate	NumFrames	NumMarkers	Units	OrigDataRate	OrigDataStartFrame	OrigNumFrames
60.0	60.0	6	27	m	60.0	449	1198
Frame#	Time	RHip			RKnee			RAnkle			RBigToe			RSmallToe			RHeel			LHip			LKnee			LAnkle			LBigToe			LSmallToe			LHeel			Neck			Head			Nose			RShoulder			RElbow			RWrist			RThumb			RIndex			RPinky			LShoulder			LElbow			LWrist			LThumb			LIndex			LPinky			
		X1	Y1	Z1	X2	Y2	Z2	X3	Y3	Z3	X4	Y4	Z4	X5	Y5	Z5	X6	Y6	Z6	X7	Y7	Z7	X8	Y8	Z8	X9	Y9	Z9	X10	Y10	Z10	X11	Y11	Z11	X12	Y12	Z12	X13	Y13	Z13	X14	Y14	Z14	X15	Y15	Z15	X16	Y16	Z16	X17	Y17	Z17	X18	Y18	Z18	X19	Y19	Z19	X20	Y20	Z20	X21	Y21	Z21	X22	Y22	Z22	X23	Y23	Z23	X24	Y24	Z24	X25	Y25	Z25	X26	Y26	Z26	X27	Y27	Z27	
449	7.483333333333333	0.36306744124191886	0.428361642914428	1.0215983541247318	0.3659205413423982	0.5583197419936111	1.3957500940748993	0.3700337890297573	0.6421201889115142	1.7214115717983924	0.3430135735996144	0.538480079960448	1.774988297245047	0.4135928075376918	0.5378225665646982	1.7668513909251053	0.37318559300210796	0.7123994771879838	1.792301812196692	0.17256131694822607	0.4233513257508251	1.0342135160121635	0.18917958713550118	0.5609088681198612	1.4047805394242723	0.1871008961413949	0.7201965264545128	1.7584226246188663	0.1919941740266747	0.5312681053417583	1.7638051573860547	0.14074451580603192	0.6000617282633146	1.7786252366896647	0.19172124604178326	0.7670800881225547	1.7922882382300191	0.26496938917990637	0.31815607395182255	0.5591374747882214	0.2678228686718261	0.24084553749879847	0.35284630817420615	0.2538107765150804	0.22248171331845534	0.46531954394072667	0.40596239801002615	0.37149331345127684	0.6140742247312285	0.4875262246441586	0.48050098665036045	0.8000253289470969	0.4181951351460564	0.2613100880226082	0.8537421179344671	0.339508394520896	0.21118531914258018	0.856749856701593	0.357794615294625	0.16294693150604064	0.8746441374553767	0.3799456548220728	0.18908660422052442	0.9091722622864431	0.11800916645458276	0.3791229291052683	0.6159061377571553	0.06702902269232178	0.5183610260636425	0.7927632606875693	0.13235133074893357	0.3130212726712546	0.8113041029082175	0.18517832642712376	0.19577104972123677	0.7803125743042307	0.16935790157592942	0.14008384261580567	0.7831702086517092	0.14795177973318643	0.22301045978389483	0.8562131055903185
450	7.5	0.3628142134203077	0.4286791775625738	1.0217706638053945	0.36132659854812577	0.5471490997924403	1.3974092695827556	0.37004757470306865	0.6420829182194279	1.7213721534417585	0.3428601857239733	0.5388953802293661	1.7750171459818234	0.41322235505243954	0.5662933781346472	1.7776247052715943	0.37205640898416925	0.7092527619679999	1.7871387894258675	0.17203644401823548	0.42454915188417236	1.0310752456375747	0.1839306551412665	0.5754463376685746	1.4086716139991236	0.18821355884479193	0.7184643378718815	1.7537114879536007	0.19199170246288347	0.5316160898983029	1.7636559889420538	0.14066662535159505	0.600568458549065	1.778529136304956	0.19285415487050733	0.7649174672192653	1.7866599615937744	0.2650605421557198	0.30531410942872195	0.559367918370841	0.2677719948708505	0.24042583601819087	0.3529252447333986	0.2537351851311044	0.22248728040233362	0.4653711396545723	0.40624616811477404	0.34660666440947085	0.6175981564636431	0.49048711920600074	0.4667352352754672	0.7988137024880794	0.4178023865005937	0.26897497206822235	0.8726698838997359	0.3396830486503137	0.23038074534752626	0.9008086834817615	0.352239788336682	0.1967298659344124	0.9142273656150995	0.3793915059460573	0.23958217114548092	0.928937083609281	0.11421480755461308	0.37681484462473197	0.6158034304566089	0.06652046721687854	0.5159078567697032	0.7889013451786575	0.12249882720002563	0.31971059288799347	0.8038785565547207	0.1762418551907742	0.218682925499426	0.7783726072943623	0.15680013968936593	0.15822146994831518	0.7773953798006088	0.14766894104908426	0.22354424901102043	0.8528894263858674
451	7.516666666666667	0.3634265101727095	0.44201451968286665	1.0311583566069167	0.3613689301419419	0.5471262367318753	1.3974703707970264	0.3700364439282552	0.6422183338505528	1.721509958615942	0.3425099148300454	0.5403027457510171	1.7710883036469218	0.41703755545321436	0.5508296878530312	1.77155056123649	0.37311308859973646	0.7124362258536896	1.792337581198093	0.1723214462170749	0.42290334002977503	1.0341390707782443	0.18604597683506277	0.5463470845873498	1.401168178984278	0.18705143753338865	0.7203782362943347	1.7583762691419127	0.19199717887953818	0.531460516160479	1.7638482912296765	0.1407257142043172	0.6002846451170205	1.7786875694759552	0.19163577473374302	0.7672095608574319	1.792329873946545	0.264985671194387	0.30531867936276724	0.5595090171327478	0.26770947411723856	0.24048694213815391	0.35290218908605375	0.2537433860594813	0.22243946415820706	0.4654319131188411	0.40971519614431584	0.3575198879922823	0.6177529385750964	0.4936430947171583	0.45288788205091973	0.797895350198164	0.41560752916044863	0.28902113212557756	0.8891801569870751	0.3403887235875541	0.2345481287453697	0.9166358528811303	0.3485279119360108	0.21111176403746876	0.9209701177189682	0.36963769708001704	0.28132100654845893	0.9557263005299603	0.11410753409810695	0.3766159820274221	0.6158193109267498	0.06960943769712326	0.508383859490913	0.7916616388562236	0.1089638828707225	0.3043330135184657	0.8001748282715024	0.1667868501339645	0.20713959126378986	0.7783887550417646	0.1425199762596775	0.14376966521403461	0.7775615784539412	0.13824662770948082	0.23291604212449618	0.8604293727181496
452	7.533333333333333	0.3676919075311983	0.4279261196231232	1.0289186796588121	0.36139808165369336	0.5471126740639266	1.3975492035061279	0.37007887462269484	0.6421932884578879	1.7214978931023257	0.3425855751361537	0.5401815459596757	1.7710506741315863	0.41707663697735714	0.5508281082509082	1.771534921534878	0.3732407407671329	0.7125733200000065	1.7923592083023232	0.17205346226580903	0.42183384549546304	1.0337742152728453	0.18106832638263748	0.561394973404783	1.4052999775850348	0.18708764003196507	0.7203402875520413	1.7584689509210873	0.19192013018162227	0.5311755096770798	1.7637799049511846	0.14067016096932514	0.6002311086575142	1.778600700538315	0.19288425893300745	0.7656850447952481	1.7869878030412265	0.2652608022749898	0.304681062826941	0.5629912048984573	0.2676092079755507	0.24067994529156395	0.3528837311078984	0.2537520188416408	0.22246077100954334	0.4655168029703416	0.4095863446415406	0.35780944305559925	0.6177991753304977	0.4937747535139294	0.4527041413766091	0.7979499879366754	0.41607687211260513	0.28804215831327895	0.8856259810857786	0.34056896175989204	0.23189208068410966	0.9196777960556615	0.34193135258168184	0.21227058322753997	0.9199596495369096	0.3702090185912106	0.2833565389756021	0.9518017595025716	0.11411270848896574	0.37406036924563024	0.6162544024148151	0.08384851586038419	0.552559833881758	0.7975138665640669	0.10694666706250007	0.31545647555229156	0.8078459559754175	0.16004499309459758	0.19625761669488762	0.7885368142177752	0.1283210945581779	0.1672680918106665	0.7872363454112152	0.13100313998202	0.22044269743020417	0.8597689894800794
453	7.55	0.3673649976111739	0.42863168836207344	1.025358626286452	0.35790684168091824	0.5440416376435814	1.3925848205377958	0.3701093197572906	0.6422044136998898	1.7214381120073838	0.3424707965809136	0.5403102763511282	1.7709576726957525	0.4134195925662508	0.5377944751925144	1.766789808815826	0.3788949264283661	0.7142878019470305	1.7877506575234894	0.17601878766921406	0.42521901677881146	1.0346591549766255	0.18843586019150974	0.5773890510386585	1.408893210962025	0.18711225026854034	0.7203374451027372	1.7584457926239314	0.18630076047802188	0.5252629516057654	1.758198965990948	0.14068174320537047	0.6000554892259419	1.7785517194847316	0.1930179280636798	0.7660832086653296	1.7871800693662048	0.2650898683546025	0.3050152092055631	0.559595405705077	0.2676940800486146	0.24088011716589355	0.3529003155768208	0.2577223944174889	0.21122976640806834	0.4659111879022735	0.4095546553717	0.35779738206281697	0.6179286790217641	0.49053678295891945	0.46690077073032316	0.79892163868407	0.4076383950165303	0.3102300078946259	0.88056598959173	0.33040998612080325	0.24695589361996606	0.8886185969695856	0.33982789324385587	0.22289016105837622	0.9091234194044838	0.3559635521792027	0.2635632564438227	0.9327741956171061	0.11898789639984428	0.38085725729752706	0.6231239989998095	0.09055581426344815	0.5889539582638376	0.7926701650522116	0.09552023291689986	0.34253279426062005	0.829670874392003	0.1379352248273847	0.22730079796342148	0.8127168189829874	0.11630298756286171	0.1900344985362044	0.8286492180801316	0.11852278160821197	0.2305596813039784	0.8719224481544029
454	7.566666666666666	0.3627521745696691	0.42851563449239005	1.0293921866537439	0.3622904740483531	0.545696078337043	1.3929683455815278	0.3700969843391675	0.6422288203575324	1.7214403870182473	0.34257363672000096	0.5401337564426097	1.7709231748979462	0.41704719071541246	0.5507988528270801	1.7714342897417068	0.3720639621458924	0.7094864764879019	1.7872625858119942	0.17534092840233081	0.4271934679203376	1.0397396671617696	0.1935493589733829	0.5620546382338885	1.4046984653320973	0.1871274293204301	0.7202531320447856	1.7583657635431307	0.18632831523567134	0.5252807679678466	1.7581092644207146	0.14065998170680258	0.6000042796434663	1.7783610490093626	0.19178930749719864	0.7676246246090342	1.7925856687879993	0.268974670408917	0.30683418344686925	0.5663249820137554	0.2639782862306114	0.23958552007437278	0.3532423760510404	0.25779115239687034	0.21107282665036003	0.4660969991535317	0.41013703322636785	0.36041925542010916	0.6211827269821107	0.4878458862598738	0.48313567415806635	0.8042308719656294	0.40765514047577595	0.304880847470414	0.8651733346577376	0.3277875890953174	0.21511886918369244	0.8639303408606507	0.341521068103419	0.1856431437343356	0.8788244579248976	0.35261785421014635	0.2370374725646126	0.9166114238296257	0.11896746020875522	0.3806587885657174	0.6236695587573159	0.07518458578665702	0.5225320801204635	0.7945056560484626	0.08981202426782861	0.31300375215641235	0.8655460725161702	0.13040532294578364	0.22067475344234042	0.8551863890096139	0.10941036087953096	0.199473080932314	0.858254608204222	0.10761964996705967	0.21721018971146874	0.8857971640630335
